<svg width="157" height="78" viewBox="0 0 157 78" fill="none" xmlns="http://www.w3.org/2000/svg">
<path d="M112.961 18.0447C113.191 19.4661 121.62 19.2864 131.788 17.6399C141.956 15.9935 150.011 13.5038 149.781 12.0823C149.551 10.6608 141.121 10.8406 130.954 12.487C120.786 14.1335 112.73 16.6232 112.961 18.0447Z" fill="#3E3F6C"/>
<path opacity="0.4" d="M112.961 18.0447C113.191 19.4661 121.62 19.2864 131.788 17.6399C141.956 15.9935 150.011 13.5038 149.781 12.0823C149.551 10.6608 141.121 10.8406 130.954 12.487C120.786 14.1335 112.73 16.6232 112.961 18.0447Z" fill="white"/>
<path d="M107.134 29.4831L107.697 32.9578C108.847 32.6804 110.032 32.4886 111.171 32.142C112.31 31.7954 113.471 31.5164 114.584 31.0727L116.227 30.4621L117.855 29.7528C118.405 29.5219 118.941 29.263 119.471 28.9745C120.023 28.6926 120.561 28.4435 121.08 28.1467C123.15 26.9808 125.121 25.6385 126.954 24.1361C128.324 23.0229 129.594 21.7941 130.757 20.4711L131.206 21.1784C131.382 21.4538 131.658 21.6523 131.975 21.7327C132.65 21.8969 133.322 21.4841 133.486 20.8092L133.932 18.9946L138.453 18.2625C139.391 18.1106 140.028 17.2275 139.876 16.2897C139.724 15.3519 138.841 14.7149 137.903 14.8667L125.12 16.9368C124.182 17.0886 123.545 17.9718 123.697 18.9096C123.849 19.8474 124.732 20.4844 125.67 20.3325L128.444 19.8834C127.521 20.7521 126.547 21.5581 125.523 22.3014C123.729 23.6149 121.817 24.7552 119.817 25.7275C119.321 25.98 118.805 26.1749 118.296 26.4093C117.799 26.652 117.285 26.8568 116.758 27.0434L115.2 27.6198L113.606 28.1007C112.559 28.4527 111.455 28.6416 110.384 28.9062C109.306 29.1314 108.205 29.2793 107.131 29.4634L107.134 29.4831Z" fill="#3E3F6C"/>
<path opacity="0.2" d="M107.134 29.4831L107.697 32.9578C108.847 32.6804 110.032 32.4886 111.171 32.142C112.31 31.7954 113.471 31.5164 114.584 31.0727L116.227 30.4621L117.855 29.7528C118.405 29.5219 118.941 29.263 119.471 28.9745C120.023 28.6926 120.561 28.4435 121.08 28.1467C123.15 26.9808 125.121 25.6385 126.954 24.1361C128.324 23.0229 129.594 21.7941 130.757 20.4711L131.206 21.1784C131.382 21.4538 131.658 21.6523 131.975 21.7327C132.65 21.8969 133.322 21.4841 133.486 20.8092L133.932 18.9946L138.453 18.2625C139.391 18.1106 140.028 17.2275 139.876 16.2897C139.724 15.3519 138.841 14.7149 137.903 14.8667L125.12 16.9368C124.182 17.0886 123.545 17.9718 123.697 18.9096C123.849 19.8474 124.732 20.4844 125.67 20.3325L128.444 19.8834C127.521 20.7521 126.547 21.5581 125.523 22.3014C123.729 23.6149 121.817 24.7552 119.817 25.7275C119.321 25.98 118.805 26.1749 118.296 26.4093C117.799 26.652 117.285 26.8568 116.758 27.0434L115.2 27.6198L113.606 28.1007C112.559 28.4527 111.455 28.6416 110.384 28.9062C109.306 29.1314 108.205 29.2793 107.131 29.4634L107.134 29.4831Z" fill="black"/>
<path d="M19.3302 33.2068C19.5604 34.6282 27.9901 34.4485 38.1576 32.802C48.3252 31.1556 56.3808 28.6659 56.1506 27.2444C55.9204 25.8229 47.4908 26.0027 37.3232 27.6491C27.1556 29.2956 19.1 31.7853 19.3302 33.2068Z" fill="#3E3F6C"/>
<path opacity="0.4" d="M19.3302 33.2068C19.5604 34.6282 27.9901 34.4485 38.1576 32.802C48.3252 31.1556 56.3808 28.6659 56.1506 27.2444C55.9204 25.8229 47.4908 26.0027 37.3232 27.6491C27.1556 29.2956 19.1 31.7853 19.3302 33.2068Z" fill="white"/>
<path d="M65.2991 36.2569L65.8618 39.7316C64.6727 39.833 63.4782 40.0264 62.2977 40.0555C61.1172 40.0846 59.9182 40.1875 58.7217 40.1179L56.9695 40.0572L55.2013 39.8978C54.6063 39.8523 54.0165 39.7756 53.4218 39.6693C52.8091 39.5761 52.2109 39.5108 51.6344 39.3914C49.3036 38.9483 47.0084 38.2867 44.7846 37.4413C43.1336 36.8172 41.5408 36.0519 40.0193 35.1637L39.8166 35.9766C39.7363 36.2935 39.5377 36.5688 39.2623 36.7451C38.6737 37.1139 37.9052 36.9345 37.5363 36.3458L36.5408 34.7646L32.0295 35.4952C31.0918 35.647 30.2086 35.01 30.0567 34.0722C29.9049 33.1344 30.5419 32.2512 31.4797 32.0994L44.2533 30.0309C45.1911 29.8791 46.0742 30.5161 46.2261 31.4539C46.378 32.3917 45.7409 33.2749 44.8032 33.4267L42.0293 33.8759C43.1793 34.4089 44.3674 34.8649 45.574 35.2469C47.69 35.9274 49.8645 36.406 52.0595 36.6989C52.6099 36.782 53.1605 36.8042 53.7175 36.866C54.2663 36.9392 54.8185 36.9713 55.3676 36.9837L57.0278 37.0391L58.6917 36.9925C59.7965 36.9959 60.9037 36.8268 62.0039 36.7398C63.1076 36.6117 64.1887 36.4063 65.2762 36.2403L65.2991 36.2569Z" fill="#3E3F6C"/>
<path opacity="0.2" d="M65.2991 36.2569L65.8618 39.7316C64.6727 39.833 63.4782 40.0264 62.2977 40.0555C61.1172 40.0846 59.9182 40.1875 58.7217 40.1179L56.9695 40.0572L55.2013 39.8978C54.6063 39.8523 54.0165 39.7756 53.4218 39.6693C52.8091 39.5761 52.2109 39.5108 51.6344 39.3914C49.3036 38.9483 47.0084 38.2867 44.7846 37.4413C43.1336 36.8172 41.5408 36.0519 40.0193 35.1637L39.8166 35.9766C39.7363 36.2935 39.5377 36.5688 39.2623 36.7451C38.6737 37.1139 37.9052 36.9345 37.5363 36.3458L36.5408 34.7646L32.0295 35.4952C31.0918 35.647 30.2086 35.01 30.0567 34.0722C29.9049 33.1344 30.5419 32.2512 31.4797 32.0994L44.2533 30.0309C45.1911 29.8791 46.0742 30.5161 46.2261 31.4539C46.378 32.3917 45.7409 33.2749 44.8032 33.4267L42.0293 33.8759C43.1793 34.4089 44.3674 34.8649 45.574 35.2469C47.69 35.9274 49.8645 36.406 52.0595 36.6989C52.6099 36.782 53.1605 36.8042 53.7175 36.866C54.2663 36.9392 54.8185 36.9713 55.3676 36.9837L57.0278 37.0391L58.6917 36.9925C59.7965 36.9959 60.9037 36.8268 62.0039 36.7398C63.1076 36.6117 64.1887 36.4063 65.2762 36.2403L65.2991 36.2569Z" fill="black"/>
<path d="M0.460408 26.7812C0.714567 28.3507 10.0617 28.144 21.325 26.3201C32.5883 24.4962 41.523 21.7426 41.2688 20.173C41.0147 18.6035 31.6675 18.8103 20.4043 20.6341C9.14097 22.458 0.206248 25.2116 0.460408 26.7812Z" fill="#3E3F6C"/>
<path opacity="0.7" d="M0.460408 26.7812C0.714567 28.3507 10.0617 28.144 21.325 26.3201C32.5883 24.4962 41.523 21.7426 41.2688 20.173C41.0147 18.6035 31.6675 18.8103 20.4043 20.6341C9.14097 22.458 0.206248 25.2116 0.460408 26.7812Z" fill="white"/>
<path d="M12.3881 27.7452C12.2219 26.7186 12.9168 25.7551 13.9434 25.5888L28.099 23.2966C29.1256 23.1304 30.0891 23.8253 30.2553 24.8519C30.42 25.8687 29.7152 26.8337 28.6985 26.9984L14.5428 29.2906C13.5261 29.4553 12.5527 28.7619 12.3881 27.7452Z" fill="#3E3F6C"/>
<path d="M18.9044 27.5108L20.6376 30.2692C20.8317 30.5924 21.1513 30.8141 21.5093 30.898C22.2566 31.0708 23.0018 30.6057 23.1746 29.8584L23.9866 26.6777L18.8929 27.5026L18.9044 27.5108Z" fill="#3E3F6C"/>
<path d="M21.3399 27.7257C22.2947 28.8677 23.3288 29.9362 24.4224 30.9342C25.4962 31.9354 26.6312 32.8761 27.7961 33.7511C30.1799 35.5229 32.7508 37.011 35.4745 38.1908C36.8379 38.7906 38.2394 39.3133 39.6677 39.7506C40.3869 39.9381 41.1211 40.0927 41.8584 40.2671L42.9538 40.5253L44.0727 40.6784C47.0726 41.1246 50.1254 41.1469 53.134 40.7712L52.4482 36.5363C49.8403 37.0093 47.1764 37.1367 44.5356 36.9059L43.5413 36.8339C43.211 36.7962 42.8858 36.7273 42.5606 36.6584C41.9036 36.5419 41.2398 36.4468 40.5878 36.2991C39.2807 35.984 37.9903 35.5852 36.7282 35.1108C34.1828 34.1554 31.7439 32.9194 29.464 31.4145C27.1857 29.9194 25.078 28.1638 23.18 26.2019L21.3497 27.7241L21.3399 27.7257Z" fill="#3E3F6C"/>
<path d="M66.3525 65.911L66.7295 64.7356C66.7295 64.7356 66.7562 64.6503 66.7711 64.6175C66.9535 63.9295 66.5458 63.2256 65.8479 63.0448C65.15 62.8641 64.456 63.2702 64.2752 63.9681L63.8983 65.1435C63.6996 65.7936 63.1385 66.2694 62.4672 66.3781L50.6511 68.2915C49.9799 68.4002 49.3071 68.1242 48.9036 67.5716L48.175 66.5752C47.7664 66.0538 47.0287 65.9403 46.4681 66.2944C45.8728 66.6846 45.6982 67.4828 46.0884 68.0781L46.817 69.0744C47.7841 70.4171 49.4249 71.1036 51.062 70.8284L62.878 68.915C64.5068 68.6513 65.8586 67.4903 66.3525 65.911Z" fill="#3E3F6C"/>
<path d="M62.7376 68.3609L70.928 50.188C70.928 50.188 70.9646 50.1011 70.9878 50.0568C71.2456 49.3971 70.9121 48.6508 70.2524 48.3929C69.5927 48.1351 68.8464 48.4686 68.5885 49.1284L60.3965 67.2914C60.2919 67.5211 60.2529 67.7806 60.3027 68.0258C60.4162 68.7267 61.0815 69.2065 61.7823 69.093C62.2068 69.0243 62.5665 68.7432 62.7459 68.3494L62.7376 68.3609Z" fill="#3E3F6C"/>
<path d="M52.0749 70.0761L60.2518 51.6319C60.2518 51.6319 60.2734 51.5777 60.29 51.5548C60.5577 50.8935 60.234 50.1456 59.5826 49.8763C58.9213 49.6086 58.1734 49.9323 57.9041 50.5837L49.6877 69.0343C49.4085 69.6873 49.7026 70.44 50.3474 70.7307C50.5672 70.8369 50.8267 70.8759 51.0719 70.8261C51.5177 70.764 51.8972 70.4797 52.0848 70.0745L52.0749 70.0761Z" fill="#3E3F6C"/>
<path d="M121.968 56.9052L122.345 55.7298C122.345 55.7298 122.372 55.6444 122.387 55.6116C122.569 54.9236 122.161 54.2197 121.463 54.039C120.775 53.8566 120.072 54.2644 119.891 54.9622L119.514 56.1376C119.315 56.7877 118.754 57.2635 118.083 57.3722L106.267 59.2856C105.595 59.3943 104.923 59.1183 104.519 58.5657L103.791 57.5694C103.382 57.048 102.644 56.9344 102.084 57.2886C101.488 57.6788 101.314 58.4769 101.704 59.0722L102.433 60.0686C103.4 61.4112 105.041 62.0978 106.678 61.8226L118.444 59.9172C120.096 59.67 121.456 58.4975 121.958 56.9068L121.968 56.9052Z" fill="#3E3F6C"/>
<path d="M107.783 61.6439C108.03 61.6039 108.266 61.4949 108.449 61.3132C108.969 60.8339 108.999 60.0186 108.518 59.4887L95.0127 44.8391C95.0127 44.8391 94.9506 44.7682 94.9146 44.7335C94.4089 44.2379 93.5901 44.249 93.0945 44.7547C92.599 45.2604 92.61 46.0792 93.1158 46.5747L106.623 61.2341C106.917 61.5511 107.347 61.7044 107.772 61.6356L107.783 61.6439Z" fill="#3E3F6C"/>
<path d="M119.112 59.5968C119.632 59.1175 119.673 58.3105 119.194 57.7904L105.614 42.8693C105.614 42.8693 105.577 42.8247 105.554 42.8082C105.056 42.3011 104.244 42.2908 103.737 42.7883C103.23 43.2857 103.22 44.0978 103.717 44.6048L117.297 59.526C117.591 59.843 118.031 59.9946 118.456 59.9259C118.703 59.8859 118.928 59.7784 119.113 59.6067L119.112 59.5968Z" fill="#3E3F6C"/>
<path d="M77.3047 48.1512L80.3253 47.6621L81.6153 55.6283L78.5946 56.1175L77.3047 48.1512Z" fill="#2D312B"/>
<path d="M108.464 30.3111L109.955 39.5212C110.149 41.0296 109.279 42.4773 107.857 43.0214C99.5043 45.8632 90.8726 47.7979 82.1119 48.8113C73.4791 50.6144 64.6878 51.5011 55.8647 51.4407C54.3443 51.3728 53.0621 50.2737 52.7698 48.7812L51.2752 39.5514C51.0816 38.043 51.9399 36.5871 53.3727 36.0511C61.7176 33.2208 70.3477 31.2763 79.1068 30.253C87.7396 28.4499 96.5423 27.5715 105.365 27.6319C106.897 27.708 108.17 28.8088 108.464 30.3111Z" fill="#3E3F6C"/>
<path opacity="0.2" d="M108.464 30.3111L109.955 39.5212C110.149 41.0296 109.279 42.4773 107.857 43.0214C99.5043 45.8632 90.8726 47.7979 82.1119 48.8113C73.4791 50.6144 64.6878 51.5011 55.8647 51.4407C54.3443 51.3728 53.0621 50.2737 52.7698 48.7812L51.2752 39.5514C51.0816 38.043 51.9399 36.5871 53.3727 36.0511C61.7176 33.2208 70.3477 31.2763 79.1068 30.253C87.7396 28.4499 96.5423 27.5715 105.365 27.6319C106.897 27.708 108.17 28.8088 108.464 30.3111Z" fill="white"/>
<path d="M81.2215 49.756C78.223 49.0057 75.1847 50.8248 74.4343 53.8233C73.6741 56.8233 75.4948 59.8715 78.4949 60.6317C81.4949 61.3919 84.5431 59.5713 85.3033 56.5712C86.0635 53.5711 84.2429 50.5229 81.2428 49.7627C81.2428 49.7627 81.2329 49.7643 81.223 49.7659L81.2215 49.756Z" fill="#3E3F6C"/>
<path d="M76.333 58.8548C76.0537 59.8827 76.9299 60.9767 78.2829 61.3249C79.6459 61.6715 80.9076 61.143 81.1869 60.1151C81.4662 59.0873 80.5983 57.9818 79.2386 57.6549C77.8871 57.3166 76.6024 57.8285 76.3231 58.8564L76.333 58.8548Z" fill="#3E3F6C"/>
<path opacity="0.2" d="M76.333 58.8548C76.0537 59.8827 76.9299 60.9767 78.2829 61.3249C79.6459 61.6715 80.9076 61.143 81.1869 60.1151C81.4662 59.0873 80.5983 57.9818 79.2386 57.6549C77.8871 57.3166 76.6024 57.8285 76.3231 58.8564L76.333 58.8548Z" fill="white"/>
<path d="M77.0864 59.1268C76.9374 59.7081 77.1894 60.3258 77.7058 60.6372C78.3551 61.0183 79.1813 60.8035 79.5641 60.1641C79.9468 59.5247 79.7303 58.6885 79.0909 58.3058C78.3115 57.9965 77.4187 58.3639 77.088 59.1367L77.0864 59.1268Z" fill="#2D312B"/>
<path d="M108.127 37.4278L107.251 32.0182C107.212 31.7813 106.994 31.6241 106.757 31.6625C106.52 31.7008 106.363 31.9188 106.402 32.1557L107.278 37.5652C107.316 37.8021 107.534 37.9593 107.771 37.921C108.008 37.8826 108.155 37.6663 108.127 37.4278Z" fill="#2D312B"/>
<path d="M106.735 37.6524L105.859 32.2428C105.82 32.0059 105.602 31.8487 105.366 31.8871C105.129 31.9255 104.971 32.1434 105.01 32.3803L105.886 37.7898C105.924 38.0267 106.142 38.1839 106.379 38.1456C106.616 38.1072 106.763 37.8909 106.735 37.6524Z" fill="#2D312B"/>
<path d="M105.343 37.877L104.467 32.4674C104.429 32.2305 104.211 32.0733 103.974 32.1117C103.737 32.1501 103.58 32.368 103.618 32.6049L104.494 38.0144C104.532 38.2514 104.75 38.4085 104.987 38.3702C105.224 38.3318 105.381 38.1139 105.343 37.877Z" fill="#2D312B"/>
<path opacity="0.2" d="M58.7828 34.3645C67.2311 31.9227 75.9054 30.3762 84.6692 29.7574L81.7972 37.2326C81.6407 37.6428 81.2728 37.9354 80.8483 38.0042L63.4549 40.8207C62.9514 40.9022 62.4561 40.6583 62.1934 40.2247L58.7828 34.3645Z" fill="white"/>
<path opacity="0.2" d="M97.3681 32.1082L98.8563 41.2985C99.0515 42.8169 98.1817 44.2645 96.7489 44.8004C83.5943 49.2706 69.7744 51.5085 55.8813 51.4182C54.3609 51.3503 53.0787 50.2511 52.7864 48.7587L51.2918 39.5289C51.0982 38.0205 51.9565 36.5645 53.3892 36.0286C54.4727 35.6506 55.5808 35.2989 56.6904 34.9572L60.3637 41.2509C61.0635 42.4444 62.4135 43.0869 63.7873 42.8745L81.1807 40.058C82.3554 39.8678 83.3405 39.0701 83.7567 37.9491L86.983 29.596C89.3953 29.4789 91.8254 29.4095 94.2404 29.4338C95.7789 29.4886 97.0742 30.6059 97.3582 32.1098L97.3681 32.1082ZM87.4445 43.582C88.1059 43.4749 88.5609 42.8441 88.4538 42.1827C88.3467 41.5213 87.7159 41.0663 87.0545 41.1734C86.3931 41.2805 85.9381 41.9114 86.0452 42.5728C86.1523 43.2341 86.7832 43.6891 87.4445 43.582ZM92.1335 42.8228C92.7949 42.7157 93.24 42.0864 93.123 41.4266C93.0159 40.7653 92.3851 40.3102 91.7237 40.4173C91.0623 40.5244 90.6073 41.1553 90.7144 41.8167C90.8215 42.4781 91.4523 42.9331 92.1137 42.826L92.1335 42.8228Z" fill="white"/>
<path d="M101.85 10.3632C102.104 11.9328 111.451 11.726 122.714 9.90212C133.978 8.07824 142.912 5.32463 142.658 3.75508C142.404 2.18552 133.057 2.39231 121.794 4.21618C110.53 6.04005 101.596 8.79367 101.85 10.3632Z" fill="#3E3F6C"/>
<path opacity="0.7" d="M101.85 10.3632C102.104 11.9328 111.451 11.726 122.714 9.90212C133.978 8.07824 142.912 5.32463 142.658 3.75508C142.404 2.18552 133.057 2.39231 121.794 4.21618C110.53 6.04005 101.596 8.79367 101.85 10.3632Z" fill="white"/>
<path d="M131.645 8.43395C131.479 7.40732 130.515 6.7124 129.488 6.87864L115.333 9.17087C114.306 9.33711 113.611 10.3006 113.777 11.3272C113.942 12.344 114.915 13.0373 115.932 12.8727L130.088 10.5804C131.105 10.4158 131.809 9.45071 131.645 8.43395Z" fill="#3E3F6C"/>
<path d="M125.397 10.2673L124.623 13.4318C124.541 13.7996 124.308 14.1109 123.994 14.3035C123.34 14.7032 122.486 14.4971 122.086 13.8426L120.312 11.0807L125.406 10.2559L125.397 10.2673Z" fill="#3E3F6C"/>
<path d="M120.894 10.3582C119.712 12.8188 118.264 15.14 116.576 17.2875C114.888 19.435 112.963 21.3776 110.849 23.0875C109.802 23.9359 108.711 24.7101 107.572 25.4315C107 25.7774 106.4 26.0772 105.813 26.395C105.515 26.5548 105.228 26.7228 104.938 26.871L104.017 27.2531C101.584 28.3056 99.0165 29.0253 96.3926 29.3996L97.0783 33.6344C100.053 33.0514 102.942 32.0569 105.647 30.6868L106.661 30.1884L107.619 29.5977C108.266 29.2192 108.914 28.8408 109.534 28.4162C110.752 27.5505 111.918 26.6221 113.021 25.6128C115.222 23.6255 117.201 21.4004 118.906 18.9768C119.743 17.7674 120.514 16.5182 121.218 15.2391C121.951 13.9454 122.585 12.6068 123.131 11.2218L120.914 10.355L120.894 10.3582Z" fill="#3E3F6C"/>
</svg>
