<svg width="57" height="56" viewBox="0 0 57 56" fill="none" xmlns="http://www.w3.org/2000/svg">
<rect x="4.5" y="4" width="48" height="48" rx="24" fill="#F4EBFF"/>
<path d="M36.6867 21.2074C36.6295 21.1596 36.5616 21.1263 36.4887 21.1106C36.4158 21.0949 36.3402 21.0971 36.2683 21.1172L31.1906 22.3805L26.1047 19.8375H26.0965L26.0473 19.8129H25.9898C25.9898 19.8047 25.9816 19.8047 25.9734 19.8047H25.7683L20.5183 21.1172C20.4106 21.1415 20.3144 21.202 20.2458 21.2885C20.1771 21.3751 20.1402 21.4825 20.141 21.593V33.4055C20.1419 33.4797 20.1593 33.5528 20.1919 33.6195C20.2245 33.6862 20.2716 33.7448 20.3297 33.791C20.4154 33.8607 20.5227 33.8984 20.6332 33.8977L20.7562 33.8812L25.8258 32.618L30.9117 35.1609L30.9691 35.1855H30.9855L31.043 35.202H31.2562L36.5062 33.8895C36.6125 33.8635 36.7068 33.8024 36.7738 33.716C36.8408 33.6296 36.8766 33.523 36.8754 33.4137V21.593C36.8763 21.5184 36.8598 21.4447 36.827 21.3777C36.7942 21.3107 36.7462 21.2524 36.6867 21.2074ZM21.1254 21.9785L25.391 20.9121V31.7074L21.1254 32.7738V21.9785ZM30.641 33.9223L26.3754 31.7895V21.0762L30.641 23.209V33.9223ZM35.891 33.0199L31.6254 34.0863V23.291L35.891 22.2246V33.0199Z" fill="#B217CD"/>
<rect x="4.5" y="4" width="48" height="48" rx="24" stroke="#F9F5FF" stroke-width="8"/>
</svg>
