<svg width="56" height="56" viewBox="0 0 56 56" fill="none" xmlns="http://www.w3.org/2000/svg">
<rect x="4" y="4" width="48" height="48" rx="24" fill="#F4EBFF"/>
<path d="M34.0355 17.0001C34.4127 17.0018 34.7881 17.0369 35.1588 17.1078C30.3735 19.952 26.8003 23.7539 23.9803 28.1513C23.8673 25.775 24.834 23.3276 26.3767 21.3332C27.0077 21.5674 27.7857 21.366 28.3225 20.8359C28.8588 20.3064 29.0637 19.5387 28.8275 18.9159C30.4268 17.7243 32.2523 16.9912 34.0355 17.0001ZM17 17.902L20.1754 21.3332L18.8298 26.8833L21.2959 27.2714L22.1647 30.8352L18.8745 32.5645L20.721 35.0371L19.3934 36.9834L23.3676 35.7623L22.629 33.8243L26.0619 32.3284L25.4744 28.5905L30.46 31.1598L30.6489 34.6186L35.6723 33.3961L37.1607 38H17V17.902H17ZM27.4412 18.8124C27.4586 18.8128 27.476 18.8136 27.493 18.815C27.6561 18.8294 27.801 18.89 27.9043 18.9918C28.1794 19.2637 28.1615 19.8263 27.7308 20.2516C27.3001 20.6769 26.7302 20.6946 26.455 20.4229C26.1798 20.1511 26.1978 19.5884 26.6285 19.1631C26.8808 18.914 27.1807 18.8053 27.4412 18.8124ZM30.3355 21.8567L38 29.4276C37.8087 29.9547 37.5064 30.358 36.8697 30.5603L29.1954 22.9797C29.5443 22.5867 29.9254 22.2135 30.3355 21.8567ZM23.2278 22.3705L22.8109 26.1138L21.5827 22.3705H23.2278L23.2278 22.3705ZM29.1381 25.6842L30.0403 27.2727L25.8913 27.5987L29.138 25.6842L29.1381 25.6842Z" fill="#B217CD"/>
<rect x="4" y="4" width="48" height="48" rx="24" stroke="#F9F5FF" stroke-width="8"/>
</svg>
