<svg width="57" height="56" viewBox="0 0 57 56" fill="none" xmlns="http://www.w3.org/2000/svg">
<rect x="4.5" y="4" width="48" height="48" rx="24" fill="#F4EBFF"/>
<rect x="4.5" y="4" width="48" height="48" rx="24" stroke="#F9F5FF" stroke-width="8"/>
<path d="M27.625 22.6875H26.75V23.5625H27.625V22.6875ZM28.5 22.6875H29.375V23.5625H28.5V22.6875ZM31.125 22.6875H30.25V23.5625H31.125V22.6875ZM26.75 24.4375H27.625V25.3125H26.75V24.4375ZM29.375 24.4375H28.5V25.3125H29.375V24.4375ZM30.25 24.4375H31.125V25.3125H30.25V24.4375ZM27.625 26.1875H26.75V27.0625H27.625V26.1875ZM28.5 26.1875H29.375V27.0625H28.5V26.1875ZM31.125 26.1875H30.25V27.0625H31.125V26.1875ZM26.75 27.9375H27.625V28.8125H26.75V27.9375ZM29.375 27.9375H28.5V28.8125H29.375V27.9375ZM26.75 29.6875H27.625V30.5625H26.75V29.6875ZM29.375 29.6875H28.5V30.5625H29.375V29.6875ZM26.75 31.4375H27.625V32.3125H26.75V31.4375ZM29.375 31.4375H28.5V32.3125H29.375V31.4375ZM26.75 33.1875H27.625V34.0625H26.75V33.1875ZM29.375 33.1875H28.5V34.0625H29.375V33.1875ZM31.5625 30.125H32.875V29.25H31.5625V30.125ZM32.875 31.875H31.5625V31H32.875V31.875ZM31.5625 33.625H32.875V32.75H31.5625V33.625Z" fill="#B217CD"/>
<path fill-rule="evenodd" clip-rule="evenodd" d="M25.4375 18.75L32.4375 21.375V27.5H34.1875C34.3035 27.5 34.4148 27.5461 34.4969 27.6281C34.5789 27.7102 34.625 27.8215 34.625 27.9375V35.375H35.0625C35.1785 35.375 35.2898 35.4211 35.3719 35.5031C35.4539 35.5852 35.5 35.6965 35.5 35.8125C35.5 35.9285 35.4539 36.0398 35.3719 36.1219C35.2898 36.2039 35.1785 36.25 35.0625 36.25H21.9375C21.8215 36.25 21.7102 36.2039 21.6281 36.1219C21.5461 36.0398 21.5 35.9285 21.5 35.8125C21.5 35.6965 21.5461 35.5852 21.6281 35.5031C21.7102 35.4211 21.8215 35.375 21.9375 35.375H22.375V26.1875C22.375 26.0715 22.4211 25.9602 22.5031 25.8781C22.5852 25.7961 22.6965 25.75 22.8125 25.75H23.6875V22.6875H24.5625V25.75H25.4375V18.75ZM26.3125 20.0126L31.5625 21.9814V27.5H30.25C30.134 27.5 30.0227 27.5461 29.9406 27.6281C29.8586 27.7102 29.8125 27.8215 29.8125 27.9375V35.375H26.3125V20.0126ZM23.25 26.625V35.375H25.4375V26.625H23.25ZM33.75 35.375H32.875V34.5H31.5625V35.375H30.6875V28.375H33.75V35.375Z" fill="#B217CD"/>
</svg>
